<?xml version="1.0" encoding="UTF-8" standalone="no"?><!-- Generator: Gravit.io --><svg xmlns="http://www.w3.org/2000/svg" xmlns:xlink="http://www.w3.org/1999/xlink" style="isolation:isolate" viewBox="0 0 64 64" width="64pt" height="64pt"><defs><clipPath id="_clipPath_e0WivBtXNdpgMjlIWin3LPeZEwAZ9Vmh"><rect width="64" height="64"/></clipPath></defs><g clip-path="url(#_clipPath_e0WivBtXNdpgMjlIWin3LPeZEwAZ9Vmh)"><clipPath id="_clipPath_hyA4CAHmKKZ5hl3znyqEsr8NCDZXWZgF"><rect x="8" y="13.408" width="48" height="37.183" transform="matrix(1,0,0,1,0,0)" fill="rgb(255,255,255)"/></clipPath><g clip-path="url(#_clipPath_hyA4CAHmKKZ5hl3znyqEsr8NCDZXWZgF)"><g><path d=" M 48.634 16.72 C 45.575 15.316 42.294 14.282 38.864 13.689 C 38.801 13.678 38.739 13.706 38.707 13.764 C 38.285 14.514 37.817 15.493 37.49 16.262 C 33.801 15.71 30.13 15.71 26.517 16.262 C 26.189 15.476 25.705 14.514 25.281 13.764 C 25.249 13.708 25.187 13.68 25.124 13.689 C 21.696 14.28 18.415 15.314 15.354 16.72 C 15.327 16.731 15.305 16.75 15.29 16.775 C 9.067 26.072 7.362 35.14 8.198 44.096 C 8.202 44.139 8.227 44.181 8.261 44.208 C 12.366 47.223 16.343 49.053 20.247 50.267 C 20.309 50.286 20.375 50.263 20.415 50.211 C 21.338 48.951 22.161 47.621 22.867 46.223 C 22.909 46.141 22.869 46.044 22.784 46.012 C 21.478 45.516 20.235 44.913 19.039 44.227 C 18.945 44.172 18.937 44.037 19.024 43.972 C 19.276 43.783 19.528 43.587 19.768 43.389 C 19.811 43.353 19.872 43.345 19.923 43.368 C 27.779 46.955 36.283 46.955 44.046 43.368 C 44.097 43.343 44.158 43.351 44.203 43.387 C 44.443 43.585 44.695 43.783 44.948 43.972 C 45.035 44.037 45.03 44.172 44.935 44.227 C 43.739 44.926 42.496 45.516 41.189 46.01 C 41.104 46.042 41.066 46.141 41.108 46.223 C 41.829 47.619 42.652 48.949 43.558 50.21 C 43.596 50.263 43.664 50.286 43.726 50.267 C 47.648 49.053 51.625 47.223 55.731 44.208 C 55.767 44.181 55.79 44.141 55.793 44.097 C 56.794 33.744 54.117 24.75 48.696 16.777 C 48.683 16.75 48.661 16.731 48.634 16.72 Z  M 24.04 38.642 C 21.675 38.642 19.726 36.471 19.726 33.805 C 19.726 31.138 21.637 28.967 24.04 28.967 C 26.462 28.967 28.392 31.157 28.354 33.805 C 28.354 36.471 26.443 38.642 24.04 38.642 Z  M 39.989 38.642 C 37.625 38.642 35.676 36.471 35.676 33.805 C 35.676 31.138 37.587 28.967 39.989 28.967 C 42.411 28.967 44.341 31.157 44.303 33.805 C 44.303 36.471 42.411 38.642 39.989 38.642 Z " fill="rgb(255,255,255)"/></g></g></g></svg>